<svg width="19" height="22" viewBox="0 0 19 22" fill="none" xmlns="http://www.w3.org/2000/svg">
<path fill-rule="evenodd" clip-rule="evenodd" d="M7.00303 0.214355H11.003C11.553 0.214355 12.003 0.664355 12.003 1.21436C12.003 1.76436 11.553 2.21436 11.003 2.21436H7.00303C6.45303 2.21436 6.00303 1.76436 6.00303 1.21436C6.00303 0.664355 6.45303 0.214355 7.00303 0.214355ZM10.003 12.2144C10.003 12.7644 9.55303 13.2144 9.00303 13.2144C8.45303 13.2144 8.00303 12.7644 8.00303 12.2144V8.21436C8.00303 7.66436 8.45303 7.21436 9.00303 7.21436C9.55303 7.21436 10.003 7.66436 10.003 8.21436V12.2144ZM16.033 6.60436L16.783 5.85436C17.163 5.47436 17.173 4.84436 16.783 4.45436L16.773 4.44436C16.383 4.05436 15.763 4.06436 15.373 4.44436L14.623 5.19436C13.073 3.95436 11.123 3.21436 9.00303 3.21436C4.20303 3.21436 0.12303 7.17436 0.00302986 11.9744C-0.12697 17.0544 3.94303 21.2144 9.00303 21.2144C13.983 21.2144 18.003 17.1844 18.003 12.2144C18.003 10.0944 17.263 8.14436 16.033 6.60436ZM2.00303 12.2144C2.00303 16.0844 5.13303 19.2144 9.00303 19.2144C12.873 19.2144 16.003 16.0844 16.003 12.2144C16.003 8.34436 12.873 5.21436 9.00303 5.21436C5.13303 5.21436 2.00303 8.34436 2.00303 12.2144Z" fill="#FF776E"/>
</svg>
