<svg width="21" height="21" viewBox="0 0 21 21" fill="none" xmlns="http://www.w3.org/2000/svg">
<path fill-rule="evenodd" clip-rule="evenodd" d="M10.8252 0.00732422C16.348 0.00732422 20.8252 4.48448 20.8252 10.0073C20.8252 15.5302 16.348 20.0073 10.8252 20.0073C5.30235 20.0073 0.825195 15.5302 0.825195 10.0073C0.825195 4.48448 5.30235 0.00732422 10.8252 0.00732422ZM10.8252 2.00732C6.40692 2.00732 2.8252 5.58905 2.8252 10.0073C2.8252 14.4256 6.40692 18.0073 10.8252 18.0073C15.2435 18.0073 18.8252 14.4256 18.8252 10.0073C18.8252 5.58905 15.2435 2.00732 10.8252 2.00732ZM10.8252 14.0073C11.3775 14.0073 11.8252 14.455 11.8252 15.0073C11.8252 15.5596 11.3775 16.0073 10.8252 16.0073C10.2729 16.0073 9.8252 15.5596 9.8252 15.0073C9.8252 14.455 10.2729 14.0073 10.8252 14.0073ZM10.8252 4.00732C13.0343 4.00732 14.8252 5.79819 14.8252 8.00732C14.8252 9.80213 13.6431 11.3208 12.015 11.8274L11.8252 11.8813V12.0073C11.8252 12.5596 11.3775 13.0073 10.8252 13.0073C10.3124 13.0073 9.88969 12.6213 9.83192 12.1239L9.8252 12.0073V11.0073C9.8252 10.4945 10.2112 10.0718 10.7086 10.0141L10.9745 10.0018C12.0093 9.92549 12.8252 9.06169 12.8252 8.00732C12.8252 6.90275 11.9298 6.00732 10.8252 6.00732C9.72063 6.00732 8.8252 6.90275 8.8252 8.00732C8.8252 8.55961 8.37748 9.00732 7.8252 9.00732C7.27291 9.00732 6.8252 8.55961 6.8252 8.00732C6.8252 5.79819 8.61606 4.00732 10.8252 4.00732Z" fill="black"/>
</svg>
