<svg width="142" height="58" viewBox="0 0 142 58" fill="none" xmlns="http://www.w3.org/2000/svg">
<path d="M1.88 27V1.08H6.776V27H1.88ZM23.8363 27C22.4923 27.252 21.1723 27.36 19.8763 27.324C18.5923 27.3 17.4403 27.078 16.4203 26.658C15.4123 26.226 14.6443 25.536 14.1163 24.588C13.6363 23.7 13.3843 22.8 13.3603 21.888C13.3363 20.964 13.3243 19.92 13.3243 18.756V2.16H18.2203V18.468C18.2203 19.224 18.2263 19.908 18.2383 20.52C18.2623 21.12 18.3883 21.6 18.6163 21.96C19.0483 22.644 19.7383 23.016 20.6863 23.076C21.6343 23.136 22.6843 23.088 23.8363 22.932V27ZM10.0123 11.34V7.56H23.8363V11.34H10.0123ZM33.5684 27.54C32.1764 27.54 30.9944 27.276 30.0224 26.748C29.0624 26.208 28.3304 25.494 27.8264 24.606C27.3344 23.706 27.0884 22.716 27.0884 21.636C27.0884 20.736 27.2264 19.914 27.5024 19.17C27.7784 18.426 28.2224 17.772 28.8344 17.208C29.4584 16.632 30.2924 16.152 31.3364 15.768C32.0564 15.504 32.9144 15.27 33.9104 15.066C34.9064 14.862 36.0344 14.67 37.2944 14.49C38.5544 14.298 39.9404 14.088 41.4524 13.86L39.6884 14.832C39.6884 13.68 39.4124 12.834 38.8604 12.294C38.3084 11.754 37.3844 11.484 36.0884 11.484C35.3684 11.484 34.6184 11.658 33.8384 12.006C33.0584 12.354 32.5124 12.972 32.2004 13.86L27.7724 12.456C28.2644 10.848 29.1884 9.54 30.5444 8.532C31.9004 7.524 33.7484 7.02 36.0884 7.02C37.8044 7.02 39.3284 7.284 40.6604 7.812C41.9924 8.34 43.0004 9.252 43.6844 10.548C44.0684 11.268 44.2964 11.988 44.3684 12.708C44.4404 13.428 44.4764 14.232 44.4764 15.12V27H40.1924V23.004L40.8044 23.832C39.8564 25.14 38.8304 26.088 37.7264 26.676C36.6344 27.252 35.2484 27.54 33.5684 27.54ZM34.6124 23.688C35.5124 23.688 36.2684 23.532 36.8804 23.22C37.5044 22.896 37.9964 22.53 38.3564 22.122C38.7284 21.714 38.9804 21.372 39.1124 21.096C39.3644 20.568 39.5084 19.956 39.5444 19.26C39.5924 18.552 39.6164 17.964 39.6164 17.496L41.0564 17.856C39.6044 18.096 38.4284 18.3 37.5284 18.468C36.6284 18.624 35.9024 18.768 35.3504 18.9C34.7984 19.032 34.3124 19.176 33.8924 19.332C33.4124 19.524 33.0224 19.734 32.7224 19.962C32.4344 20.178 32.2184 20.418 32.0744 20.682C31.9424 20.946 31.8764 21.24 31.8764 21.564C31.8764 22.008 31.9844 22.392 32.2004 22.716C32.4284 23.028 32.7464 23.268 33.1544 23.436C33.5624 23.604 34.0484 23.688 34.6124 23.688ZM49.5167 27V0.539999H54.4127V27H49.5167ZM60.1691 4.86V0.539999H65.0651V4.86H60.1691ZM60.1691 27V7.56H65.0651V27H60.1691ZM75.8614 27.54C74.4694 27.54 73.2874 27.276 72.3154 26.748C71.3554 26.208 70.6234 25.494 70.1194 24.606C69.6274 23.706 69.3814 22.716 69.3814 21.636C69.3814 20.736 69.5194 19.914 69.7954 19.17C70.0714 18.426 70.5154 17.772 71.1274 17.208C71.7514 16.632 72.5854 16.152 73.6294 15.768C74.3494 15.504 75.2074 15.27 76.2034 15.066C77.1994 14.862 78.3274 14.67 79.5874 14.49C80.8474 14.298 82.2334 14.088 83.7454 13.86L81.9814 14.832C81.9814 13.68 81.7054 12.834 81.1534 12.294C80.6014 11.754 79.6774 11.484 78.3814 11.484C77.6614 11.484 76.9114 11.658 76.1314 12.006C75.3514 12.354 74.8054 12.972 74.4934 13.86L70.0654 12.456C70.5574 10.848 71.4814 9.54 72.8374 8.532C74.1934 7.524 76.0414 7.02 78.3814 7.02C80.0974 7.02 81.6214 7.284 82.9534 7.812C84.2854 8.34 85.2934 9.252 85.9774 10.548C86.3614 11.268 86.5894 11.988 86.6614 12.708C86.7334 13.428 86.7694 14.232 86.7694 15.12V27H82.4854V23.004L83.0974 23.832C82.1494 25.14 81.1234 26.088 80.0194 26.676C78.9274 27.252 77.5414 27.54 75.8614 27.54ZM76.9054 23.688C77.8054 23.688 78.5614 23.532 79.1734 23.22C79.7974 22.896 80.2894 22.53 80.6494 22.122C81.0214 21.714 81.2734 21.372 81.4054 21.096C81.6574 20.568 81.8014 19.956 81.8374 19.26C81.8854 18.552 81.9094 17.964 81.9094 17.496L83.3494 17.856C81.8974 18.096 80.7214 18.3 79.8214 18.468C78.9214 18.624 78.1954 18.768 77.6434 18.9C77.0914 19.032 76.6054 19.176 76.1854 19.332C75.7054 19.524 75.3154 19.734 75.0154 19.962C74.7274 20.178 74.5114 20.418 74.3674 20.682C74.2354 20.946 74.1694 21.24 74.1694 21.564C74.1694 22.008 74.2774 22.392 74.4934 22.716C74.7214 23.028 75.0394 23.268 75.4474 23.436C75.8554 23.604 76.3414 23.688 76.9054 23.688ZM104.698 27V17.82C104.698 17.376 104.674 16.812 104.626 16.128C104.578 15.432 104.428 14.736 104.176 14.04C103.924 13.344 103.51 12.762 102.934 12.294C102.37 11.826 101.566 11.592 100.522 11.592C100.102 11.592 99.6517 11.658 99.1717 11.79C98.6917 11.922 98.2417 12.18 97.8217 12.564C97.4017 12.936 97.0537 13.488 96.7777 14.22C96.5137 14.952 96.3817 15.924 96.3817 17.136L93.5737 15.804C93.5737 14.268 93.8857 12.828 94.5097 11.484C95.1337 10.14 96.0697 9.054 97.3177 8.226C98.5777 7.398 100.162 6.984 102.07 6.984C103.594 6.984 104.836 7.242 105.796 7.758C106.756 8.274 107.5 8.928 108.028 9.72C108.568 10.512 108.952 11.34 109.18 12.204C109.408 13.056 109.546 13.836 109.594 14.544C109.642 15.252 109.666 15.768 109.666 16.092V27H104.698ZM91.4137 27V7.56H95.7697V14.004H96.3817V27H91.4137ZM12.32 57.54C10.688 57.54 9.134 57.252 7.658 56.676C6.182 56.088 4.874 55.224 3.734 54.084C2.606 52.944 1.712 51.534 1.052 49.854C0.404 48.174 0.08 46.236 0.08 44.04C0.08 41.172 0.626 38.736 1.718 36.732C2.822 34.716 4.298 33.18 6.146 32.124C8.006 31.068 10.064 30.54 12.32 30.54C15.656 30.54 18.278 31.314 20.186 32.862C22.094 34.41 23.372 36.6 24.02 39.432L19.016 40.152C18.548 38.64 17.78 37.434 16.712 36.534C15.656 35.622 14.3 35.16 12.644 35.148C11 35.124 9.632 35.478 8.54 36.21C7.448 36.942 6.626 37.98 6.074 39.324C5.534 40.668 5.264 42.24 5.264 44.04C5.264 45.84 5.534 47.4 6.074 48.72C6.626 50.04 7.448 51.066 8.54 51.798C9.632 52.53 11 52.908 12.644 52.932C13.76 52.956 14.768 52.764 15.668 52.356C16.58 51.948 17.348 51.306 17.972 50.43C18.596 49.554 19.04 48.432 19.304 47.064H15.2V43.284H24.524C24.548 43.44 24.566 43.716 24.578 44.112C24.59 44.508 24.596 44.736 24.596 44.796C24.596 47.28 24.092 49.482 23.084 51.402C22.076 53.322 20.654 54.828 18.818 55.92C16.982 57 14.816 57.54 12.32 57.54ZM37.2396 57.54C35.2476 57.54 33.4896 57.114 31.9656 56.262C30.4536 55.398 29.2656 54.216 28.4016 52.716C27.5496 51.204 27.1236 49.476 27.1236 47.532C27.1236 45.408 27.5436 43.56 28.3836 41.988C29.2236 40.416 30.3816 39.198 31.8576 38.334C33.3336 37.458 35.0316 37.02 36.9516 37.02C38.9916 37.02 40.7256 37.5 42.1536 38.46C43.5816 39.42 44.6376 40.77 45.3216 42.51C46.0056 44.25 46.2456 46.296 46.0416 48.648H41.1996V46.848C41.1996 44.868 40.8816 43.446 40.2456 42.582C39.6216 41.706 38.5956 41.268 37.1676 41.268C35.4996 41.268 34.2696 41.778 33.4776 42.798C32.6976 43.806 32.3076 45.3 32.3076 47.28C32.3076 49.092 32.6976 50.496 33.4776 51.492C34.2696 52.476 35.4276 52.968 36.9516 52.968C37.9116 52.968 38.7336 52.758 39.4176 52.338C40.1016 51.918 40.6236 51.312 40.9836 50.52L45.8796 51.924C45.1476 53.7 43.9896 55.08 42.4056 56.064C40.8336 57.048 39.1116 57.54 37.2396 57.54ZM30.7956 48.648V45.012H43.6836V48.648H30.7956ZM57.7019 57.54C55.2539 57.54 53.2739 56.988 51.7619 55.884C50.2619 54.768 49.3499 53.196 49.0259 51.168L54.0299 50.412C54.2339 51.324 54.6839 52.038 55.3799 52.554C56.0879 53.07 56.9819 53.328 58.0619 53.328C58.9499 53.328 59.6339 53.16 60.1139 52.824C60.5939 52.476 60.8339 51.996 60.8339 51.384C60.8339 51 60.7379 50.694 60.5459 50.466C60.3539 50.226 59.9219 49.992 59.2499 49.764C58.5899 49.536 57.5579 49.236 56.1539 48.864C54.5699 48.456 53.3039 48 52.3559 47.496C51.4079 46.992 50.7239 46.392 50.3039 45.696C49.8839 44.988 49.6739 44.136 49.6739 43.14C49.6739 41.892 49.9919 40.812 50.6279 39.9C51.2639 38.976 52.1579 38.268 53.3099 37.776C54.4739 37.272 55.8419 37.02 57.4139 37.02C58.9379 37.02 60.2879 37.254 61.4639 37.722C62.6399 38.19 63.5879 38.856 64.3079 39.72C65.0399 40.584 65.4899 41.604 65.6579 42.78L60.6539 43.68C60.5699 42.96 60.2579 42.39 59.7179 41.97C59.1779 41.55 58.4459 41.304 57.5219 41.232C56.6219 41.172 55.8959 41.292 55.3439 41.592C54.8039 41.892 54.5339 42.324 54.5339 42.888C54.5339 43.224 54.6479 43.506 54.8759 43.734C55.1159 43.962 55.6019 44.196 56.3339 44.436C57.0779 44.676 58.2059 44.988 59.7179 45.372C61.1939 45.756 62.3759 46.206 63.2639 46.722C64.1639 47.226 64.8179 47.838 65.2259 48.558C65.6339 49.266 65.8379 50.124 65.8379 51.132C65.8379 53.124 65.1179 54.69 63.6779 55.83C62.2379 56.97 60.2459 57.54 57.7019 57.54ZM81.4574 57C80.1134 57.252 78.7934 57.36 77.4974 57.324C76.2134 57.3 75.0614 57.078 74.0414 56.658C73.0334 56.226 72.2654 55.536 71.7374 54.588C71.2574 53.7 71.0054 52.8 70.9814 51.888C70.9574 50.964 70.9454 49.92 70.9454 48.756V32.16H75.8414V48.468C75.8414 49.224 75.8474 49.908 75.8594 50.52C75.8834 51.12 76.0094 51.6 76.2374 51.96C76.6694 52.644 77.3594 53.016 78.3074 53.076C79.2554 53.136 80.3054 53.088 81.4574 52.932V57ZM67.6334 41.34V37.56H81.4574V41.34H67.6334ZM93.0255 57.576C91.5015 57.576 90.2595 57.318 89.2995 56.802C88.3395 56.286 87.5895 55.632 87.0495 54.84C86.5215 54.048 86.1435 53.226 85.9155 52.374C85.6875 51.51 85.5495 50.724 85.5015 50.016C85.4535 49.308 85.4295 48.792 85.4295 48.468V37.56H90.3975V46.74C90.3975 47.184 90.4215 47.754 90.4695 48.45C90.5175 49.134 90.6675 49.824 90.9195 50.52C91.1715 51.216 91.5795 51.798 92.1435 52.266C92.7195 52.734 93.5295 52.968 94.5735 52.968C94.9935 52.968 95.4435 52.902 95.9235 52.77C96.4035 52.638 96.8535 52.386 97.2735 52.014C97.6935 51.63 98.0355 51.072 98.2995 50.34C98.5755 49.596 98.7135 48.624 98.7135 47.424L101.522 48.756C101.522 50.292 101.21 51.732 100.586 53.076C99.9615 54.42 99.0195 55.506 97.7595 56.334C96.5115 57.162 94.9335 57.576 93.0255 57.576ZM99.3255 57V50.556H98.7135V37.56H103.646V57H99.3255ZM108.676 57V37.56H112.996V42.312L112.528 41.7C112.78 41.028 113.116 40.416 113.536 39.864C113.956 39.312 114.472 38.856 115.084 38.496C115.552 38.208 116.062 37.986 116.614 37.83C117.166 37.662 117.736 37.56 118.324 37.524C118.912 37.476 119.5 37.488 120.088 37.56V42.132C119.548 41.964 118.918 41.91 118.198 41.97C117.49 42.018 116.848 42.18 116.272 42.456C115.696 42.72 115.21 43.074 114.814 43.518C114.418 43.95 114.118 44.466 113.914 45.066C113.71 45.654 113.608 46.32 113.608 47.064V57H108.676ZM132.197 57.54C130.205 57.54 128.447 57.114 126.923 56.262C125.411 55.398 124.223 54.216 123.359 52.716C122.507 51.204 122.081 49.476 122.081 47.532C122.081 45.408 122.501 43.56 123.341 41.988C124.181 40.416 125.339 39.198 126.815 38.334C128.291 37.458 129.989 37.02 131.909 37.02C133.949 37.02 135.683 37.5 137.111 38.46C138.539 39.42 139.595 40.77 140.279 42.51C140.963 44.25 141.203 46.296 140.999 48.648H136.157V46.848C136.157 44.868 135.839 43.446 135.203 42.582C134.579 41.706 133.553 41.268 132.125 41.268C130.457 41.268 129.227 41.778 128.435 42.798C127.655 43.806 127.265 45.3 127.265 47.28C127.265 49.092 127.655 50.496 128.435 51.492C129.227 52.476 130.385 52.968 131.909 52.968C132.869 52.968 133.691 52.758 134.375 52.338C135.059 51.918 135.581 51.312 135.941 50.52L140.837 51.924C140.105 53.7 138.947 55.08 137.363 56.064C135.791 57.048 134.069 57.54 132.197 57.54ZM125.753 48.648V45.012H138.641V48.648H125.753Z" fill="black"/>
</svg>
