<svg width="252" height="42" viewBox="0 0 252 42" fill="none" xmlns="http://www.w3.org/2000/svg">
<path d="M60.3161 34.2183V8.29826H64.7081L73.2761 25.5063L81.8441 8.29826H86.2361V34.2183H81.6641V18.7383L74.1401 34.2183H72.4121L64.8881 18.7383V34.2183H60.3161ZM96.6888 34.7583C95.2968 34.7583 94.1148 34.4943 93.1428 33.9663C92.1828 33.4263 91.4508 32.7123 90.9468 31.8243C90.4548 30.9243 90.2088 29.9343 90.2088 28.8543C90.2088 27.9543 90.3468 27.1323 90.6228 26.3883C90.8988 25.6443 91.3428 24.9903 91.9548 24.4263C92.5788 23.8503 93.4128 23.3703 94.4568 22.9863C95.1768 22.7223 96.0348 22.4883 97.0308 22.2843C98.0268 22.0803 99.1548 21.8883 100.415 21.7083C101.675 21.5163 103.061 21.3063 104.573 21.0783L102.809 22.0503C102.809 20.8983 102.533 20.0523 101.981 19.5123C101.429 18.9723 100.505 18.7023 99.2088 18.7023C98.4888 18.7023 97.7388 18.8763 96.9588 19.2243C96.1788 19.5723 95.6328 20.1903 95.3208 21.0783L90.8928 19.6743C91.3848 18.0663 92.3088 16.7583 93.6648 15.7503C95.0208 14.7423 96.8688 14.2383 99.2088 14.2383C100.925 14.2383 102.449 14.5023 103.781 15.0303C105.113 15.5583 106.121 16.4703 106.805 17.7663C107.189 18.4863 107.417 19.2063 107.489 19.9263C107.561 20.6463 107.597 21.4503 107.597 22.3383V34.2183H103.313V30.2223L103.925 31.0503C102.977 32.3583 101.951 33.3063 100.847 33.8943C99.7548 34.4703 98.3688 34.7583 96.6888 34.7583ZM97.7328 30.9063C98.6328 30.9063 99.3888 30.7503 100.001 30.4383C100.625 30.1143 101.117 29.7483 101.477 29.3403C101.849 28.9323 102.101 28.5903 102.233 28.3143C102.485 27.7863 102.629 27.1743 102.665 26.4783C102.713 25.7703 102.737 25.1823 102.737 24.7143L104.177 25.0743C102.725 25.3143 101.549 25.5183 100.649 25.6863C99.7488 25.8423 99.0228 25.9863 98.4708 26.1183C97.9188 26.2503 97.4328 26.3943 97.0128 26.5503C96.5328 26.7423 96.1428 26.9523 95.8428 27.1803C95.5548 27.3963 95.3388 27.6363 95.1948 27.9003C95.0628 28.1643 94.9968 28.4583 94.9968 28.7823C94.9968 29.2263 95.1048 29.6103 95.3208 29.9343C95.5488 30.2463 95.8668 30.4863 96.2748 30.6543C96.6828 30.8223 97.1688 30.9063 97.7328 30.9063ZM123.401 34.7583C120.809 34.7583 118.571 34.1943 116.687 33.0663C114.815 31.9383 113.369 30.3603 112.349 28.3323C111.341 26.3043 110.837 23.9463 110.837 21.2583C110.837 18.5703 111.341 16.2123 112.349 14.1843C113.369 12.1563 114.815 10.5783 116.687 9.45026C118.571 8.32226 120.809 7.75826 123.401 7.75826C126.377 7.75826 128.873 8.49626 130.889 9.97226C132.917 11.4483 134.345 13.4463 135.173 15.9663L130.241 17.3343C129.761 15.7623 128.951 14.5443 127.811 13.6803C126.671 12.8043 125.201 12.3663 123.401 12.3663C121.757 12.3663 120.383 12.7323 119.279 13.4643C118.187 14.1963 117.365 15.2283 116.813 16.5603C116.261 17.8923 115.985 19.4583 115.985 21.2583C115.985 23.0583 116.261 24.6243 116.813 25.9563C117.365 27.2883 118.187 28.3203 119.279 29.0523C120.383 29.7843 121.757 30.1503 123.401 30.1503C125.201 30.1503 126.671 29.7123 127.811 28.8363C128.951 27.9603 129.761 26.7423 130.241 25.1823L135.173 26.5503C134.345 29.0703 132.917 31.0683 130.889 32.5443C128.873 34.0203 126.377 34.7583 123.401 34.7583ZM152.384 34.2183V25.0383C152.384 24.5943 152.36 24.0303 152.312 23.3463C152.264 22.6503 152.114 21.9543 151.862 21.2583C151.61 20.5623 151.196 19.9803 150.62 19.5123C150.056 19.0443 149.252 18.8103 148.208 18.8103C147.788 18.8103 147.338 18.8763 146.858 19.0083C146.378 19.1403 145.928 19.3983 145.508 19.7823C145.088 20.1543 144.74 20.7063 144.464 21.4383C144.2 22.1703 144.068 23.1423 144.068 24.3543L141.26 23.0223C141.26 21.4863 141.572 20.0463 142.196 18.7023C142.82 17.3583 143.756 16.2723 145.004 15.4443C146.264 14.6163 147.848 14.2023 149.756 14.2023C151.28 14.2023 152.522 14.4603 153.482 14.9763C154.442 15.4923 155.186 16.1463 155.714 16.9383C156.254 17.7303 156.638 18.5583 156.866 19.4223C157.094 20.2743 157.232 21.0543 157.28 21.7623C157.328 22.4703 157.352 22.9863 157.352 23.3103V34.2183H152.384ZM139.1 34.2183V8.29826H143.456V21.6183H144.068V34.2183H139.1ZM171.059 34.7583C169.067 34.7583 167.309 34.3323 165.785 33.4803C164.273 32.6163 163.085 31.4343 162.221 29.9343C161.369 28.4223 160.943 26.6943 160.943 24.7503C160.943 22.6263 161.363 20.7783 162.203 19.2063C163.043 17.6343 164.201 16.4163 165.677 15.5523C167.153 14.6763 168.851 14.2383 170.771 14.2383C172.811 14.2383 174.545 14.7183 175.973 15.6783C177.401 16.6383 178.457 17.9883 179.141 19.7283C179.825 21.4683 180.065 23.5143 179.861 25.8663H175.019V24.0663C175.019 22.0863 174.701 20.6643 174.065 19.8003C173.441 18.9243 172.415 18.4863 170.987 18.4863C169.319 18.4863 168.089 18.9963 167.297 20.0163C166.517 21.0243 166.127 22.5183 166.127 24.4983C166.127 26.3103 166.517 27.7143 167.297 28.7103C168.089 29.6943 169.247 30.1863 170.771 30.1863C171.731 30.1863 172.553 29.9763 173.237 29.5563C173.921 29.1363 174.443 28.5303 174.803 27.7383L179.699 29.1423C178.967 30.9183 177.809 32.2983 176.225 33.2823C174.653 34.2663 172.931 34.7583 171.059 34.7583ZM164.615 25.8663V22.2303H177.503V25.8663H164.615ZM183.925 34.2183V8.29826H199.765V13.1943H188.821V18.8103H197.605V23.7063H188.821V34.2183H183.925ZM207.712 34.7583C206.32 34.7583 205.138 34.4943 204.166 33.9663C203.206 33.4263 202.474 32.7123 201.97 31.8243C201.478 30.9243 201.232 29.9343 201.232 28.8543C201.232 27.9543 201.37 27.1323 201.646 26.3883C201.922 25.6443 202.366 24.9903 202.978 24.4263C203.602 23.8503 204.436 23.3703 205.48 22.9863C206.2 22.7223 207.058 22.4883 208.054 22.2843C209.05 22.0803 210.178 21.8883 211.438 21.7083C212.698 21.5163 214.084 21.3063 215.596 21.0783L213.832 22.0503C213.832 20.8983 213.556 20.0523 213.004 19.5123C212.452 18.9723 211.528 18.7023 210.232 18.7023C209.512 18.7023 208.762 18.8763 207.982 19.2243C207.202 19.5723 206.656 20.1903 206.344 21.0783L201.916 19.6743C202.408 18.0663 203.332 16.7583 204.688 15.7503C206.044 14.7423 207.892 14.2383 210.232 14.2383C211.948 14.2383 213.472 14.5023 214.804 15.0303C216.136 15.5583 217.144 16.4703 217.828 17.7663C218.212 18.4863 218.44 19.2063 218.512 19.9263C218.584 20.6463 218.62 21.4503 218.62 22.3383V34.2183H214.336V30.2223L214.948 31.0503C214 32.3583 212.974 33.3063 211.87 33.8943C210.778 34.4703 209.392 34.7583 207.712 34.7583ZM208.756 30.9063C209.656 30.9063 210.412 30.7503 211.024 30.4383C211.648 30.1143 212.14 29.7483 212.5 29.3403C212.872 28.9323 213.124 28.5903 213.256 28.3143C213.508 27.7863 213.652 27.1743 213.688 26.4783C213.736 25.7703 213.76 25.1823 213.76 24.7143L215.2 25.0743C213.748 25.3143 212.572 25.5183 211.672 25.6863C210.772 25.8423 210.046 25.9863 209.494 26.1183C208.942 26.2503 208.456 26.3943 208.036 26.5503C207.556 26.7423 207.166 26.9523 206.866 27.1803C206.578 27.3963 206.362 27.6363 206.218 27.9003C206.086 28.1643 206.02 28.4583 206.02 28.7823C206.02 29.2263 206.128 29.6103 206.344 29.9343C206.572 30.2463 206.89 30.4863 207.298 30.6543C207.706 30.8223 208.192 30.9063 208.756 30.9063ZM223.66 12.0783V7.75826H228.556V12.0783H223.66ZM223.66 34.2183V14.7783H228.556V34.2183H223.66Z" fill="white"/>
<rect y="0.0664062" width="41.0262" height="41.0262" rx="10" fill="#FF776E"/>
<mask id="mask0_200_75" style="mask-type:alpha" maskUnits="userSpaceOnUse" x="9" y="0" width="23" height="37">
<rect x="31.5955" y="0.0664062" width="36.2773" height="22.1647" transform="rotate(90 31.5955 0.0664062)" fill="black"/>
</mask>
<g mask="url(#mask0_200_75)">
<path d="M17.0497 -43.6411C16.608 -40.4388 18.194 -7.35575 18.0072 -0.597717C17.8205 6.16032 13.8872 10.0459 13.4371 11.0816C12.9871 12.1172 12.4796 12.9648 12.4796 15.0528L12.4796 31.4735C12.4799 31.9106 12.6547 32.3296 12.9655 32.6386C13.2764 32.9475 13.6979 33.1211 14.1374 33.1211C14.5767 33.1211 14.9981 32.9475 15.3088 32.6385C15.6195 32.3295 15.794 31.9105 15.794 31.4735L15.794 15.0528L15.9305 15.0528C16.0507 14.7874 16.245 14.5619 16.4903 14.403C16.7355 14.2441 17.0215 14.1585 17.3142 14.1564C17.6089 14.1564 17.8974 14.2409 18.1449 14.3999C18.3925 14.559 18.5887 14.7856 18.7099 15.0528L18.8451 15.0528L18.8451 31.4735C18.8454 31.9106 19.0202 32.3296 19.3311 32.6386C19.642 32.9475 20.0635 33.1211 20.503 33.1211C20.9424 33.1211 21.3639 32.9475 21.6748 32.6386C21.9857 32.3296 22.1605 31.9106 22.1608 31.4735L22.1608 15.0528L22.296 15.0528C22.4172 14.7856 22.6134 14.559 22.861 14.3999C23.1086 14.2409 23.397 14.1564 23.6917 14.1564C23.9863 14.1563 24.2746 14.2409 24.522 14.3999C24.7694 14.5589 24.9653 14.7856 25.0862 15.0528L25.2227 15.0528L25.2227 31.4735C25.2228 31.6907 25.2661 31.9058 25.3501 32.1063C25.4341 32.3068 25.5571 32.4889 25.712 32.642C25.867 32.7951 26.0508 32.9162 26.253 32.9984C26.4552 33.0806 26.6717 33.1223 26.8901 33.1211C27.3294 33.1211 27.7508 32.9475 28.0615 32.6385C28.3722 32.3295 28.5467 31.9105 28.5467 31.4735L28.5467 15.0528C28.5467 12.9648 28.0344 12.1172 27.5891 11.0816C27.1438 10.0459 23.2081 6.16032 23.019 -0.597717C22.8299 -7.35575 24.4159 -40.4388 23.9766 -43.6411C23.5373 -46.8433 21.2331 -47.2219 20.5065 -47.2219C19.78 -47.2219 17.4913 -46.8433 17.0497 -43.6411Z" fill="#FCFCFC"/>
</g>
</svg>
