<svg width="232" height="42" viewBox="0 0 232 42" fill="none" xmlns="http://www.w3.org/2000/svg">
<path d="M60.3161 34.6387V8.71867H64.7081L73.2761 25.9267L81.8441 8.71867H86.2361V34.6387H81.6641V19.1587L74.1401 34.6387H72.4121L64.8881 19.1587V34.6387H60.3161ZM96.6888 35.1787C95.2968 35.1787 94.1148 34.9147 93.1428 34.3867C92.1828 33.8467 91.4508 33.1327 90.9468 32.2447C90.4548 31.3447 90.2088 30.3547 90.2088 29.2747C90.2088 28.3747 90.3468 27.5527 90.6228 26.8087C90.8988 26.0647 91.3428 25.4107 91.9548 24.8467C92.5788 24.2707 93.4128 23.7907 94.4568 23.4067C95.1768 23.1427 96.0348 22.9087 97.0308 22.7047C98.0268 22.5007 99.1548 22.3087 100.415 22.1287C101.675 21.9367 103.061 21.7267 104.573 21.4987L102.809 22.4707C102.809 21.3187 102.533 20.4727 101.981 19.9327C101.429 19.3927 100.505 19.1227 99.2088 19.1227C98.4888 19.1227 97.7388 19.2967 96.9588 19.6447C96.1788 19.9927 95.6328 20.6107 95.3208 21.4987L90.8928 20.0947C91.3848 18.4867 92.3088 17.1787 93.6648 16.1707C95.0208 15.1627 96.8688 14.6587 99.2088 14.6587C100.925 14.6587 102.449 14.9227 103.781 15.4507C105.113 15.9787 106.121 16.8907 106.805 18.1867C107.189 18.9067 107.417 19.6267 107.489 20.3467C107.561 21.0667 107.597 21.8707 107.597 22.7587V34.6387H103.313V30.6427L103.925 31.4707C102.977 32.7787 101.951 33.7267 100.847 34.3147C99.7548 34.8907 98.3688 35.1787 96.6888 35.1787ZM97.7328 31.3267C98.6328 31.3267 99.3888 31.1707 100.001 30.8587C100.625 30.5347 101.117 30.1687 101.477 29.7607C101.849 29.3527 102.101 29.0107 102.233 28.7347C102.485 28.2067 102.629 27.5947 102.665 26.8987C102.713 26.1907 102.737 25.6027 102.737 25.1347L104.177 25.4947C102.725 25.7347 101.549 25.9387 100.649 26.1067C99.7488 26.2627 99.0228 26.4067 98.4708 26.5387C97.9188 26.6707 97.4328 26.8147 97.0128 26.9707C96.5328 27.1627 96.1428 27.3727 95.8428 27.6007C95.5548 27.8167 95.3388 28.0567 95.1948 28.3207C95.0628 28.5847 94.9968 28.8787 94.9968 29.2027C94.9968 29.6467 95.1048 30.0307 95.3208 30.3547C95.5488 30.6667 95.8668 30.9067 96.2748 31.0747C96.6828 31.2427 97.1688 31.3267 97.7328 31.3267ZM123.401 35.1787C120.809 35.1787 118.571 34.6147 116.687 33.4867C114.815 32.3587 113.369 30.7807 112.349 28.7527C111.341 26.7247 110.837 24.3667 110.837 21.6787C110.837 18.9907 111.341 16.6327 112.349 14.6047C113.369 12.5767 114.815 10.9987 116.687 9.87067C118.571 8.74267 120.809 8.17867 123.401 8.17867C126.377 8.17867 128.873 8.91667 130.889 10.3927C132.917 11.8687 134.345 13.8667 135.173 16.3867L130.241 17.7547C129.761 16.1827 128.951 14.9647 127.811 14.1007C126.671 13.2247 125.201 12.7867 123.401 12.7867C121.757 12.7867 120.383 13.1527 119.279 13.8847C118.187 14.6167 117.365 15.6487 116.813 16.9807C116.261 18.3127 115.985 19.8787 115.985 21.6787C115.985 23.4787 116.261 25.0447 116.813 26.3767C117.365 27.7087 118.187 28.7407 119.279 29.4727C120.383 30.2047 121.757 30.5707 123.401 30.5707C125.201 30.5707 126.671 30.1327 127.811 29.2567C128.951 28.3807 129.761 27.1627 130.241 25.6027L135.173 26.9707C134.345 29.4907 132.917 31.4887 130.889 32.9647C128.873 34.4407 126.377 35.1787 123.401 35.1787ZM152.384 34.6387V25.4587C152.384 25.0147 152.36 24.4507 152.312 23.7667C152.264 23.0707 152.114 22.3747 151.862 21.6787C151.61 20.9827 151.196 20.4007 150.62 19.9327C150.056 19.4647 149.252 19.2307 148.208 19.2307C147.788 19.2307 147.338 19.2967 146.858 19.4287C146.378 19.5607 145.928 19.8187 145.508 20.2027C145.088 20.5747 144.74 21.1267 144.464 21.8587C144.2 22.5907 144.068 23.5627 144.068 24.7747L141.26 23.4427C141.26 21.9067 141.572 20.4667 142.196 19.1227C142.82 17.7787 143.756 16.6927 145.004 15.8647C146.264 15.0367 147.848 14.6227 149.756 14.6227C151.28 14.6227 152.522 14.8807 153.482 15.3967C154.442 15.9127 155.186 16.5667 155.714 17.3587C156.254 18.1507 156.638 18.9787 156.866 19.8427C157.094 20.6947 157.232 21.4747 157.28 22.1827C157.328 22.8907 157.352 23.4067 157.352 23.7307V34.6387H152.384ZM139.1 34.6387V8.71867H143.456V22.0387H144.068V34.6387H139.1ZM171.059 35.1787C169.067 35.1787 167.309 34.7527 165.785 33.9007C164.273 33.0367 163.085 31.8547 162.221 30.3547C161.369 28.8427 160.943 27.1147 160.943 25.1707C160.943 23.0467 161.363 21.1987 162.203 19.6267C163.043 18.0547 164.201 16.8367 165.677 15.9727C167.153 15.0967 168.851 14.6587 170.771 14.6587C172.811 14.6587 174.545 15.1387 175.973 16.0987C177.401 17.0587 178.457 18.4087 179.141 20.1487C179.825 21.8887 180.065 23.9347 179.861 26.2867H175.019V24.4867C175.019 22.5067 174.701 21.0847 174.065 20.2207C173.441 19.3447 172.415 18.9067 170.987 18.9067C169.319 18.9067 168.089 19.4167 167.297 20.4367C166.517 21.4447 166.127 22.9387 166.127 24.9187C166.127 26.7307 166.517 28.1347 167.297 29.1307C168.089 30.1147 169.247 30.6067 170.771 30.6067C171.731 30.6067 172.553 30.3967 173.237 29.9767C173.921 29.5567 174.443 28.9507 174.803 28.1587L179.699 29.5627C178.967 31.3387 177.809 32.7187 176.225 33.7027C174.653 34.6867 172.931 35.1787 171.059 35.1787ZM164.615 26.2867V22.6507H177.503V26.2867H164.615ZM183.925 34.6387V8.71867H199.765V13.6147H188.821V19.2307H197.605V24.1267H188.821V34.6387H183.925ZM207.712 35.1787C206.32 35.1787 205.138 34.9147 204.166 34.3867C203.206 33.8467 202.474 33.1327 201.97 32.2447C201.478 31.3447 201.232 30.3547 201.232 29.2747C201.232 28.3747 201.37 27.5527 201.646 26.8087C201.922 26.0647 202.366 25.4107 202.978 24.8467C203.602 24.2707 204.436 23.7907 205.48 23.4067C206.2 23.1427 207.058 22.9087 208.054 22.7047C209.05 22.5007 210.178 22.3087 211.438 22.1287C212.698 21.9367 214.084 21.7267 215.596 21.4987L213.832 22.4707C213.832 21.3187 213.556 20.4727 213.004 19.9327C212.452 19.3927 211.528 19.1227 210.232 19.1227C209.512 19.1227 208.762 19.2967 207.982 19.6447C207.202 19.9927 206.656 20.6107 206.344 21.4987L201.916 20.0947C202.408 18.4867 203.332 17.1787 204.688 16.1707C206.044 15.1627 207.892 14.6587 210.232 14.6587C211.948 14.6587 213.472 14.9227 214.804 15.4507C216.136 15.9787 217.144 16.8907 217.828 18.1867C218.212 18.9067 218.44 19.6267 218.512 20.3467C218.584 21.0667 218.62 21.8707 218.62 22.7587V34.6387H214.336V30.6427L214.948 31.4707C214 32.7787 212.974 33.7267 211.87 34.3147C210.778 34.8907 209.392 35.1787 207.712 35.1787ZM208.756 31.3267C209.656 31.3267 210.412 31.1707 211.024 30.8587C211.648 30.5347 212.14 30.1687 212.5 29.7607C212.872 29.3527 213.124 29.0107 213.256 28.7347C213.508 28.2067 213.652 27.5947 213.688 26.8987C213.736 26.1907 213.76 25.6027 213.76 25.1347L215.2 25.4947C213.748 25.7347 212.572 25.9387 211.672 26.1067C210.772 26.2627 210.046 26.4067 209.494 26.5387C208.942 26.6707 208.456 26.8147 208.036 26.9707C207.556 27.1627 207.166 27.3727 206.866 27.6007C206.578 27.8167 206.362 28.0567 206.218 28.3207C206.086 28.5847 206.02 28.8787 206.02 29.2027C206.02 29.6467 206.128 30.0307 206.344 30.3547C206.572 30.6667 206.89 30.9067 207.298 31.0747C207.706 31.2427 208.192 31.3267 208.756 31.3267ZM223.66 12.4987V8.17867H228.556V12.4987H223.66ZM223.66 34.6387V15.1987H228.556V34.6387H223.66Z" fill="black"/>
<rect y="0.486816" width="41.0262" height="41.0262" rx="10" fill="black"/>
<mask id="mask0_197_74" style="mask-type:alpha" maskUnits="userSpaceOnUse" x="9" y="0" width="23" height="37">
<rect x="31.5955" y="0.486816" width="36.2773" height="22.1647" transform="rotate(90 31.5955 0.486816)" fill="black"/>
</mask>
<g mask="url(#mask0_197_74)">
<path d="M17.0497 -43.2206C16.608 -40.0184 18.194 -6.93534 18.0072 -0.177307C17.8205 6.58073 13.8872 10.4663 13.4371 11.502C12.9871 12.5376 12.4796 13.3852 12.4796 15.4732L12.4796 31.8939C12.4799 32.331 12.6547 32.75 12.9655 33.059C13.2764 33.3679 13.6979 33.5415 14.1374 33.5415C14.5767 33.5415 14.9981 33.3679 15.3088 33.0589C15.6195 32.7499 15.794 32.3309 15.794 31.8939L15.794 15.4732L15.9305 15.4732C16.0507 15.2078 16.245 14.9823 16.4903 14.8234C16.7355 14.6645 17.0215 14.5789 17.3142 14.5768C17.6089 14.5768 17.8974 14.6614 18.1449 14.8204C18.3925 14.9794 18.5887 15.2061 18.7099 15.4732L18.8451 15.4732L18.8451 31.8939C18.8454 32.331 19.0202 32.75 19.3311 33.059C19.642 33.3679 20.0635 33.5415 20.503 33.5415C20.9424 33.5415 21.3639 33.3679 21.6748 33.059C21.9857 32.75 22.1605 32.331 22.1608 31.8939L22.1608 15.4732L22.296 15.4732C22.4172 15.2061 22.6134 14.9794 22.861 14.8204C23.1086 14.6614 23.397 14.5768 23.6917 14.5768C23.9863 14.5767 24.2746 14.6613 24.522 14.8203C24.7694 14.9793 24.9653 15.2061 25.0862 15.4732L25.2227 15.4732L25.2227 31.8939C25.2228 32.1111 25.2661 32.3262 25.3501 32.5267C25.4341 32.7272 25.5571 32.9093 25.712 33.0624C25.867 33.2155 26.0508 33.3366 26.253 33.4188C26.4552 33.5011 26.6717 33.5427 26.8901 33.5415C27.3294 33.5415 27.7508 33.3679 28.0615 33.0589C28.3722 32.7499 28.5467 32.3309 28.5467 31.8939L28.5467 15.4732C28.5467 13.3852 28.0344 12.5376 27.5891 11.502C27.1438 10.4663 23.2081 6.58073 23.019 -0.177307C22.8299 -6.93534 24.4159 -40.0184 23.9766 -43.2206C23.5373 -46.4229 21.2331 -46.8014 20.5065 -46.8014C19.78 -46.8014 17.4913 -46.4229 17.0497 -43.2206Z" fill="#FCFCFC"/>
</g>
</svg>
