<svg width="15" height="12" viewBox="0 0 15 12" fill="none" xmlns="http://www.w3.org/2000/svg">
<path fill-rule="evenodd" clip-rule="evenodd" d="M8.3584 0.313391L8.41704 0.246985C8.67114 -0.00711673 9.07098 -0.026663 9.3475 0.188346L9.41391 0.246985L14.3481 5.18122L14.3773 5.21221L14.4162 5.26003L14.4667 5.33844L14.5044 5.4179L14.5293 5.49216L14.5497 5.59641L14.5546 5.67965L14.5526 5.73269L14.5403 5.82114L14.5195 5.89968L14.4886 5.97798L14.4517 6.04669L14.3997 6.12052L14.3481 6.17808L9.41391 11.1123C9.13863 11.3876 8.69232 11.3876 8.41704 11.1123C8.16294 10.8582 8.14339 10.4584 8.3584 10.1819L8.41704 10.1155L12.1467 6.38454H1.16168C0.772377 6.38454 0.456787 6.06895 0.456787 5.67965C0.456787 5.29035 0.772377 4.97476 1.16168 4.97476H12.1481L8.41704 1.24385C8.16294 0.989749 8.14339 0.589913 8.3584 0.313391L8.41704 0.246985L8.3584 0.313391Z" fill="#737373"/>
</svg>
