<svg width="30" height="29" viewBox="0 0 30 29" fill="none" xmlns="http://www.w3.org/2000/svg">
<path d="M15.0323 27.6959C22.3582 27.6959 28.297 21.7571 28.297 14.4312C28.297 7.10531 22.3582 1.1665 15.0323 1.1665C7.70639 1.1665 1.76758 7.10531 1.76758 14.4312C1.76758 21.7571 7.70639 27.6959 15.0323 27.6959Z" stroke="#57D36B" stroke-width="2" stroke-miterlimit="10"/>
<path d="M10.2779 12.6301C9.72109 13.7306 9.61401 15.0046 9.97931 16.1827C10.3446 17.3607 11.1536 18.3506 12.2354 18.9431C14.7484 20.3794 17.7434 19.5377 19.0232 16.9415C20.3029 14.3454 19.608 5.48019 18.0444 7.10004C16.0208 9.16768 11.8684 9.29981 10.2779 12.6301Z" stroke="#57D36B" stroke-width="2" stroke-miterlimit="10"/>
<path d="M12.1643 27.2703C12.1643 27.2703 9.40911 22.7729 12.7712 16.4696C13.7594 14.6169 15.4295 13.171 16.1245 12.4268" stroke="#57D36B" stroke-width="2" stroke-linecap="round" stroke-linejoin="round"/>
</svg>
